<?xml version="1.0" standalone="no"?>
<!DOCTYPE svg PUBLIC "-//W3C//DTD SVG 20010904//EN"
 "http://www.w3.org/TR/2001/REC-SVG-20010904/DTD/svg10.dtd">
<svg version="1.0" xmlns="http://www.w3.org/2000/svg"
 width="512.000000pt" height="512.000000pt" viewBox="0 0 512.000000 512.000000"
 preserveAspectRatio="xMidYMid meet">

<g transform="translate(0.000000,512.000000) scale(0.100000,-0.100000)"
fill="#000000" stroke="none">
<path d="M2325 4788 c-414 -41 -847 -221 -1180 -491 -113 -92 -288 -274 -377
-393 -506 -681 -590 -1569 -218 -2329 117 -239 255 -429 451 -621 868 -845
2250 -845 3118 0 196 192 334 382 451 621 549 1123 77 2473 -1053 3010 -360
171 -787 244 -1192 203z m1335 -2228 l0 -1180 -1100 0 -1100 0 0 1180 0 1180
1100 0 1100 0 0 -1180z"/>
<path d="M1562 3588 c-6 -6 -12 -36 -12 -65 0 -66 11 -73 123 -73 102 0 109 6
105 87 l-3 58 -100 3 c-70 2 -104 -1 -113 -10z"/>
<path d="M3337 3593 c-12 -11 -8 -118 5 -131 15 -15 171 -16 199 -2 15 9 19
22 19 63 0 29 -5 58 -12 65 -13 13 -199 17 -211 5z"/>
<path d="M1900 3110 l0 -480 655 2 655 3 3 478 2 477 -657 0 -658 0 0 -480z"/>
<path d="M1568 3319 c-23 -13 -25 -110 -4 -128 9 -8 48 -11 112 -9 l99 3 3 60
c3 47 0 62 -14 72 -21 16 -171 17 -196 2z"/>
<path d="M3346 3317 c-14 -10 -17 -25 -14 -72 l3 -60 99 -3 c64 -2 103 1 112
9 9 7 14 31 14 65 0 42 -4 55 -19 64 -28 15 -173 13 -195 -3z"/>
<path d="M1562 3038 c-7 -7 -12 -35 -12 -63 0 -28 5 -56 12 -63 8 -8 46 -12
103 -12 57 0 95 4 103 12 19 19 16 124 -4 132 -29 11 -189 7 -202 -6z"/>
<path d="M3342 3038 c-16 -16 -16 -110 0 -126 8 -8 46 -12 103 -12 57 0 95 4
103 12 7 7 12 35 12 63 0 28 -5 56 -12 63 -16 16 -190 16 -206 0z"/>
<path d="M1568 2769 c-14 -7 -18 -23 -18 -62 0 -29 4 -58 8 -65 6 -9 36 -12
113 -10 l104 3 3 60 c3 47 0 62 -14 72 -21 16 -171 17 -196 2z"/>
<path d="M3346 2767 c-14 -10 -17 -25 -14 -72 l3 -60 104 -3 c77 -2 107 1 113
10 4 7 8 36 8 65 0 42 -4 54 -19 63 -28 15 -173 13 -195 -3z"/>
<path d="M1562 2488 c-7 -7 -12 -35 -12 -63 0 -28 5 -56 12 -63 8 -8 46 -12
103 -12 57 0 95 4 103 12 7 7 12 35 12 63 0 28 -5 56 -12 63 -8 8 -46 12 -103
12 -57 0 -95 -4 -103 -12z"/>
<path d="M3342 2488 c-16 -16 -16 -110 0 -126 8 -8 46 -12 103 -12 57 0 95 4
103 12 7 7 12 35 12 63 0 28 -5 56 -12 63 -8 8 -46 12 -103 12 -57 0 -95 -4
-103 -12z"/>
<path d="M1900 2000 l0 -480 655 2 655 3 0 475 0 475 -655 3 -655 2 0 -480z"/>
<path d="M1556 2205 c-3 -9 -6 -39 -6 -66 0 -44 3 -51 26 -59 37 -15 167 -12
188 3 14 10 17 25 14 72 l-3 60 -106 3 c-91 2 -108 0 -113 -13z"/>
<path d="M3337 2214 c-4 -4 -7 -33 -7 -65 0 -47 4 -60 19 -69 25 -13 151 -13
186 0 25 9 26 13 23 72 l-3 63 -106 3 c-58 1 -108 -1 -112 -4z"/>
<path d="M1562 1938 c-7 -7 -12 -35 -12 -63 0 -28 5 -56 12 -63 13 -13 173
-17 202 -6 20 8 23 113 4 132 -8 8 -46 12 -103 12 -57 0 -95 -4 -103 -12z"/>
<path d="M3342 1938 c-16 -16 -16 -110 0 -126 8 -8 46 -12 103 -12 57 0 95 4
103 12 7 7 12 35 12 63 0 28 -5 56 -12 63 -8 8 -46 12 -103 12 -57 0 -95 -4
-103 -12z"/>
<path d="M1562 1658 c-6 -6 -12 -36 -12 -65 0 -66 12 -73 117 -73 105 0 115 8
111 85 l-3 60 -100 3 c-70 2 -104 -1 -113 -10z"/>
<path d="M3337 1663 c-4 -3 -7 -32 -7 -64 0 -72 10 -79 115 -79 103 0 115 7
115 73 0 29 -5 58 -12 65 -13 13 -199 17 -211 5z"/>
</g>
</svg>
